<?xml version="1.0" encoding="utf-8"?>
<!-- Generator: Adobe Illustrator 25.0.1, SVG Export Plug-In . SVG Version: 6.00 Build 0)  -->
<svg version="1.1" id="Capa_1" xmlns="http://www.w3.org/2000/svg" xmlns:xlink="http://www.w3.org/1999/xlink" x="0px" y="0px"
	 viewBox="0 0 492.44 309.95" style="enable-background:new 0 0 492.44 309.95;" xml:space="preserve">
<style type="text/css">
	.st0{fill:#2955D9;}
	.st1{fill:#0597F2;}
</style>
<g>
	<g>
		<path class="st0" d="M4.98,252.44v-28.78c0-1.32,0.46-2.45,1.39-3.38c0.93-0.93,2.05-1.39,3.38-1.39c1.33,0,2.45,0.46,3.38,1.39
			c0.93,0.93,1.39,2.06,1.39,3.38v10.09h13.72v-10.09c0-1.32,0.46-2.45,1.39-3.38c0.93-0.93,2.05-1.39,3.38-1.39
			c1.33,0,2.45,0.46,3.38,1.39c0.93,0.93,1.39,2.06,1.39,3.38v28.78c0,1.33-0.46,2.45-1.39,3.38c-0.93,0.93-2.05,1.39-3.38,1.39
			c-1.33,0-2.45-0.46-3.38-1.39c-0.93-0.93-1.39-2.05-1.39-3.38v-10.94H14.52v10.94c0,1.33-0.46,2.45-1.39,3.38
			c-0.93,0.93-2.05,1.39-3.38,1.39c-1.33,0-2.45-0.46-3.38-1.39C5.44,254.9,4.98,253.77,4.98,252.44z"/>
		<path class="st0" d="M43.6,238.03c0-5.93,1.66-10.67,4.97-14.22c3.31-3.55,7.82-5.32,13.52-5.32c5.73,0,10.23,1.76,13.5,5.29
			c3.26,3.53,4.9,8.28,4.9,14.24c0,5.97-1.65,10.72-4.95,14.27c-3.3,3.55-7.81,5.32-13.55,5.32c-5.73,0-10.23-1.77-13.5-5.32
			C45.23,248.75,43.6,243.99,43.6,238.03z M55.93,229.01c-1.52,1.97-2.29,4.98-2.29,9.02c0,4.04,0.76,7.06,2.29,9.05
			c1.52,1.99,3.56,2.98,6.11,2.98c2.55,0,4.59-0.99,6.11-2.98c1.52-1.99,2.29-5,2.29-9.05c0-4.04-0.76-7.05-2.29-9.02
			c-1.52-1.97-3.56-2.96-6.11-2.96C59.49,226.05,57.45,227.03,55.93,229.01z"/>
		<path class="st0" d="M85.45,229.92c0-3.35,1.33-6.11,4-8.28c2.67-2.17,6.32-3.26,10.96-3.26c2.02,0,4.07,0.26,6.14,0.77
			c2.07,0.51,3.91,1.38,5.52,2.61c1.61,1.23,2.41,2.69,2.41,4.37c0,1.19-0.42,2.18-1.27,2.96c-0.85,0.78-1.86,1.17-3.06,1.17
			c-0.76,0-1.45-0.16-2.06-0.47c-0.61-0.31-1.15-0.69-1.62-1.12c-0.46-0.43-0.95-0.87-1.47-1.32c-0.51-0.45-1.19-0.83-2.01-1.14
			c-0.83-0.31-1.77-0.47-2.83-0.47c-1.56,0-2.8,0.31-3.73,0.94c-0.93,0.63-1.39,1.39-1.39,2.29c0,0.99,0.34,1.81,1.02,2.46
			c0.68,0.65,1.91,1.15,3.7,1.52l6.06,1.29c7.09,1.53,10.64,5.24,10.64,11.14c0,3.55-1.26,6.48-3.78,8.8
			c-2.52,2.32-6.5,3.48-11.93,3.48c-2.68,0-5.16-0.24-7.43-0.72c-2.27-0.48-4.23-1.34-5.87-2.58c-1.64-1.24-2.46-2.78-2.46-4.6
			c0-1.23,0.44-2.22,1.32-2.98c0.88-0.76,1.95-1.14,3.21-1.14c0.93,0,1.81,0.21,2.63,0.62c0.83,0.41,1.53,0.87,2.11,1.37
			c0.58,0.5,1.41,0.95,2.49,1.37c1.08,0.41,2.28,0.62,3.6,0.62c4.08,0,6.11-1.19,6.11-3.58c0-0.93-0.33-1.68-0.99-2.26
			c-0.66-0.58-1.84-1.05-3.53-1.42l-6.11-1.29c-3.51-0.76-6.12-2.05-7.83-3.85C86.31,235.4,85.45,232.98,85.45,229.92z"/>
		<path class="st0" d="M122.14,252.44v-28.93c0-2.82,1.41-4.23,4.23-4.23h11.14c4.41,0,7.94,1.14,10.61,3.43
			c2.67,2.29,4,5.47,4,9.54c0,4.01-1.33,7.19-3.98,9.54c-2.65,2.35-6.21,3.53-10.69,3.53h-5.77v7.11c0,1.33-0.46,2.45-1.39,3.38
			c-0.93,0.93-2.05,1.39-3.38,1.39c-1.33,0-2.45-0.46-3.38-1.39C122.6,254.9,122.14,253.77,122.14,252.44z M131.68,238.03h4.42
			c4.41,0,6.61-1.87,6.61-5.62c0-1.99-0.59-3.46-1.77-4.4s-2.78-1.42-4.8-1.42h-4.47V238.03z"/>
		<path class="st0" d="M157.68,252.44v-28.78c0-1.32,0.46-2.45,1.39-3.38c0.93-0.93,2.05-1.39,3.38-1.39c1.33,0,2.45,0.46,3.38,1.39
			c0.93,0.93,1.39,2.06,1.39,3.38v28.78c0,1.33-0.46,2.45-1.39,3.38c-0.93,0.93-2.05,1.39-3.38,1.39c-1.33,0-2.45-0.46-3.38-1.39
			C158.15,254.9,157.68,253.77,157.68,252.44z"/>
		<path class="st0" d="M173.04,238.38c0-5.93,1.67-10.73,5-14.39c3.33-3.66,7.8-5.49,13.4-5.49c2.22,0,4.4,0.28,6.54,0.84
			c2.14,0.56,4.02,1.52,5.64,2.86c1.62,1.34,2.44,2.96,2.44,4.85c0,1.26-0.44,2.33-1.32,3.21c-0.88,0.88-1.95,1.32-3.21,1.32
			c-0.83,0-1.55-0.19-2.16-0.57c-0.61-0.38-1.14-0.85-1.57-1.39c-0.43-0.55-0.89-1.09-1.37-1.64c-0.48-0.55-1.14-1.01-1.99-1.39
			c-0.85-0.38-1.85-0.57-3.01-0.57c-2.52,0-4.54,0.99-6.06,2.96c-1.52,1.97-2.29,4.96-2.29,8.97c0,4.11,0.78,7.18,2.34,9.2
			c1.56,2.02,3.56,3.03,6.01,3.03c1.23,0,2.28-0.21,3.16-0.65c0.88-0.43,1.57-0.94,2.06-1.54c0.5-0.6,0.97-1.2,1.42-1.81
			c0.45-0.61,0.99-1.13,1.62-1.57c0.63-0.43,1.39-0.65,2.29-0.65c1.26,0,2.34,0.46,3.26,1.37c0.91,0.91,1.37,2.01,1.37,3.31
			c0,1.92-0.82,3.6-2.46,5.02c-1.64,1.43-3.58,2.45-5.82,3.08c-2.24,0.63-4.53,0.94-6.88,0.94c-5.97,0-10.52-1.7-13.67-5.09
			C174.62,249.17,173.04,244.44,173.04,238.38z"/>
		<path class="st0" d="M210.23,238.03c0-5.93,1.66-10.67,4.97-14.22c3.31-3.55,7.82-5.32,13.52-5.32c5.73,0,10.23,1.76,13.5,5.29
			c3.26,3.53,4.9,8.28,4.9,14.24c0,5.97-1.65,10.72-4.95,14.27c-3.3,3.55-7.81,5.32-13.55,5.32c-5.73,0-10.23-1.77-13.5-5.32
			C211.86,248.75,210.23,243.99,210.23,238.03z M222.55,229.01c-1.52,1.97-2.29,4.98-2.29,9.02c0,4.04,0.76,7.06,2.29,9.05
			c1.52,1.99,3.56,2.98,6.11,2.98c2.55,0,4.59-0.99,6.11-2.98c1.52-1.99,2.29-5,2.29-9.05c0-4.04-0.76-7.05-2.29-9.02
			c-1.52-1.97-3.56-2.96-6.11-2.96C226.11,226.05,224.08,227.03,222.55,229.01z"/>
		<path class="st0" d="M252.92,252.44v-28.93c0-2.82,1.41-4.23,4.23-4.23h12.18c4.31,0,7.7,1,10.17,3.01
			c2.47,2.01,3.7,4.83,3.7,8.48c0,4.9-2.22,8.45-6.66,10.64v0.1l4.67,9c0.36,0.63,0.55,1.34,0.55,2.14c0,1.26-0.45,2.34-1.34,3.23
			c-0.89,0.89-1.99,1.34-3.28,1.34c-0.86,0-1.67-0.22-2.41-0.67c-0.75-0.45-1.3-1.05-1.67-1.81l-5.57-10.74h-5.02v8.45
			c0,1.33-0.46,2.45-1.39,3.38c-0.93,0.93-2.05,1.39-3.38,1.39c-1.33,0-2.45-0.46-3.38-1.39
			C253.39,254.9,252.92,253.77,252.92,252.44z M262.47,236.44h4.82c4.08,0,6.11-1.67,6.11-5.02c0-1.96-0.55-3.3-1.64-4.03
			c-1.09-0.73-2.58-1.09-4.47-1.09h-4.82V236.44z"/>
	</g>
	<g>
		<g>
			<path class="st0" d="M236.43,154.99v-23.03V90.82c0-17,13.78-30.78,30.78-30.78h0.1c17,0,30.78,13.78,30.78,30.78v33.48h60.39
				c0.01-0.02,0.01-0.04,0.02-0.07h3.53V98.66h0c0,0,0,0,0,0c0-52.29-42.39-94.68-94.68-94.68s-94.68,42.39-94.68,94.68
				c0,41.46,26.66,76.67,63.76,89.49V154.99z"/>
		</g>
		<path class="st1" d="M423.51,121.74v33.3v27.05v37.22c0,16.97-13.76,30.74-30.74,30.74h0c-16.97,0-30.74-13.76-30.74-30.74v-33.52
			h-60.44c0,0,0,0,0,0h-3.51v25.52c0,52.29,42.39,94.68,94.68,94.68s94.68-42.39,94.68-94.68
			C487.47,169.76,460.72,134.5,423.51,121.74z"/>
	</g>
</g>
</svg>
